PathFileType	4	(X/Y/Z)	T1_P1_Vision_Movement_3_0-659.trc
DataRate	CameraRate	NumFrames	NumMarkers	Units	OrigDataRate	OrigDataStartFrame	OrigNumFrames
60	60	6	27	m	60	329	659
Frame#	Time	RHip			RKnee			RAnkle			RBigToe			RSmallToe			RHeel			LHip			LKnee			LAnkle			LBigToe			LSmallToe			LHeel			Neck			Head			Nose			RShoulder			RElbow			RWrist			RThumb			RIndex			RPinky			LShoulder			LElbow			LWrist			LThumb			LIndex			LPinky		
		X1	Y1	Z1	X2	Y2	Z2	X3	Y3	Z3	X4	Y4	Z4	X5	Y5	Z5	X6	Y6	Z6	X7	Y7	Z7	X8	Y8	Z8	X9	Y9	Z9	X10	Y10	Z10	X11	Y11	Z11	X12	Y12	Z12	X13	Y13	Z13	X14	Y14	Z14	X15	Y15	Z15	X16	Y16	Z16	X17	Y17	Z17	X18	Y18	Z18	X19	Y19	Z19	X20	Y20	Z20	X21	Y21	Z21	X22	Y22	Z22	X23	Y23	Z23	X24	Y24	Z24	X25	Y25	Z25	X26	Y26	Z26	X27	Y27	Z27
330	5.5	-113.70833290655189	3907.5463309763177	-632.3129688282054	243.8504661491584	4058.82690767611	-647.2307035338283	605.4564134731385	4268.372722275581	-686.9876760308058	684.1256643337908	4171.393479971615	-643.1808083532275	674.4886658952081	4138.103962063186	-683.6314824429331	638.7982914524459	4314.909579639982	-698.3540352424365	-130.88796543858612	4054.1656093310617	-490.80720242016645	214.18374946997778	4164.363047093909	-490.82273706447717	548.6860712774837	4331.4839754743425	-515.8795641343648	642.0805314420364	4238.2922330297515	-415.78598855463576	616.5572826131746	4283.62156401062	-381.38759519429203	607.249468154092	4375.251549006602	-538.8657792142183	-720.1656093811101	3841.5380658604568	-590.5545990725614	-947.9870716041613	3675.1529301668415	-489.64652057781313	-804.6717045213478	3662.1191183639057	-454.43481873091736	-589.020063052354	3757.4747196993617	-711.870720969775	-350.8952461493225	3662.630088909747	-708.0797309299319	-506.80285524338854	3478.3739237780055	-611.8761054092076	-628.4857682578179	3523.9887779112796	-602.0756009868207	-620.0372929521843	3447.900818858695	-567.7411374001944	-544.3086456939724	3404.1227973407185	-552.779044386809	-653.7385450364379	3964.587588530729	-465.55640087153813	-408.6748356181878	4096.488628031028	-418.39688402540406	-151.4993274058711	4097.09029194085	-366.16233354256923	-22.689628060298425	4109.848095401667	-370.42509399312536	6.018131890724848	4138.450915611686	-358.6469623451914	-15.376399417585375	4155.099539078734	-334.786931575637
331	5.516666666666667	-113.53026129213927	3907.6748942241056	-632.3530476415815	249.21060256599634	4058.2292884412313	-646.6300687082661	605.5889686012698	4268.381083789344	-686.9032631332242	684.1399789002932	4171.302307026235	-643.0110208076667	674.720550793054	4138.694678877203	-683.8721691562001	645.5930870302365	4317.700749692323	-697.5558829598308	-130.79895838063794	4054.121238751406	-490.8449850098124	214.18381543847465	4164.099362295215	-490.6834587890343	548.4853515493667	4331.676060341234	-516.1394517447147	641.8866224069103	4237.550556481585	-415.3507476811135	605.399927547402	4246.031476859881	-373.05446638768734	606.9789578083069	4375.536215576996	-539.1957715079385	-720.1472831180997	3841.336070288433	-590.4546673296129	-947.9222280316892	3675.363360873328	-489.7914812119926	-804.7488594023296	3662.365668563952	-454.5290693149491	-593.7791986999086	3754.410475258897	-710.5724627261189	-351.14125336986234	3663.7060065659844	-702.8554101149223	-506.6824772437303	3478.31450698504	-611.8163133827151	-617.0686410799623	3512.1486497970413	-591.7460374273389	-605.8863831828974	3412.0380982135352	-549.3028792094907	-544.1127383237421	3403.1371564309916	-552.3628853422292	-653.7322532374858	3964.5883107051923	-465.5515308753398	-407.74585369406657	4075.666919018306	-404.3084463992118	-152.68125707581422	4124.771416004016	-371.29264680486517	-27.865309475924413	4108.589614175011	-371.0732346018887	0.3489066409584473	4136.683399225124	-359.3053280166614	-15.760646178516964	4155.723124119686	-335.16539678520274
332	5.533333333333333	-113.60020713757152	3908.0255708241075	-632.5143560971721	243.70043575505667	4058.214970848956	-647.1831228010861	599.3362561109469	4264.010834038906	-684.5366950998208	678.2122766458513	4168.406082605958	-643.5932004243597	673.2208140833131	4157.85397915032	-700.7202451628797	639.1174684601492	4314.645182261741	-698.285749025925	-130.80574610540972	4054.1496779105914	-490.90978424157976	214.87167151449245	4164.681646563337	-496.7182732035256	553.5838073596314	4330.966154996352	-515.4315942784068	641.9714989505942	4237.891133745463	-415.7040824056758	605.2949668624053	4246.126379095684	-373.073194738867	606.8766149589856	4375.165968610933	-539.151661488125	-720.1176076717579	3841.268870514277	-590.4663691459212	-947.9801916917154	3675.380500202048	-483.4614211502328	-799.9614055860117	3665.422938498096	-455.37766143612123	-588.9125056985708	3757.4306860158886	-711.993187478703	-351.153272167003	3663.7717511586548	-702.8072885490999	-499.1333786894332	3497.6515115843936	-626.7478927600056	-605.4930596835658	3513.188098692314	-591.5713285188438	-588.6563323115613	3413.9102197777765	-549.4543212917246	-543.5825900197144	3401.959557025079	-552.2150004925596	-648.9357663892426	3965.6470895946986	-465.4741385732685	-407.73005973993213	4075.602500612465	-404.17689734836244	-151.63271542239937	4096.729425103132	-366.1897095984583	-23.13139754207489	4109.04740253098	-370.0239706132399	5.808879480274594	4138.090614350934	-358.3801653253207	-15.64521053484536	4155.184066683998	-335.0259516256059
333	5.55	-113.47289669426695	3907.9608200073735	-632.5675819899421	249.1568119529895	4058.3288591982187	-646.8765585176692	599.2608920887606	4264.004681696657	-684.6585265776409	678.072351919743	4167.929542115906	-643.4273823753146	673.1574358568532	4157.6069716987395	-700.7568022347045	638.6976272418165	4315.5986352313175	-698.9877156754726	-130.70887067608592	4054.368883137831	-490.98311560061546	214.02780667890943	4164.092900296619	-490.68961551643946	548.3441433590656	4331.496334752391	-516.1490873611313	636.3784653772317	4238.879586680364	-416.26641558304976	604.979854479958	4245.97991578013	-373.06511601917595	606.4833242481717	4374.795700322181	-539.0428759680823	-715.1363231236065	3844.6994260766564	-591.6190482045125	-947.9894208926856	3675.5451989560593	-483.5068095090892	-800.027592154636	3665.553332465428	-455.4736340428175	-593.6487423478903	3754.3761660013934	-710.6919012651672	-350.9091891629041	3663.8113892981796	-702.6843151604878	-493.7468368251252	3499.5383079450853	-626.6323364636204	-604.8947065661616	3500.6456552584127	-592.1475159535671	-588.81504675099	3406.904560432987	-552.6374290550029	-540.3341275363474	3417.4758127478935	-563.1739771506682	-648.5506227383429	3968.2307252984715	-466.77820844644214	-408.667106647781	4097.017139203667	-418.56500232681924	-152.64072115759538	4125.132622079323	-371.29597978857197	-22.937230656918604	4111.370091761219	-370.7192728463936	11.430416952897618	4143.896682502449	-360.4905662224076	-15.61838730271433	4155.231700894207	-334.8695696844452
334	5.566666666666666	-113.78220550813364	3908.29901611379	-632.6781207865776	243.70472055089854	4058.6310589819286	-647.2797857924033	604.8735432890367	4263.317779162685	-683.7885119583717	683.844488918014	4171.0976550940195	-642.8618673376061	680.3710311720243	4137.95641089731	-683.122054699577	638.8143564743685	4315.546026095007	-698.7484542513888	-130.47463603348595	4075.195263115553	-505.7705308117586	215.40644299787834	4194.420687988317	-496.8934803807676	553.6539821558757	4331.387695564604	-515.4219371713856	636.7580212386932	4214.7322582538845	-400.3488609652982	609.8062940624654	4278.930246593002	-378.9882006462703	607.4956966021003	4376.040988849795	-539.3384130429951	-715.1859909119395	3844.781916210616	-591.7300266313465	-948.0098519952174	3675.3426102350686	-483.4205852509037	-799.3393178449747	3665.7116724299653	-455.7419309025671	-593.7987682756258	3754.5784308219772	-710.7774562135315	-350.81414651839054	3664.086837454011	-702.9748167501803	-493.7336043232274	3499.753029347172	-626.9072949586458	-600.9142991206675	3476.329068931176	-584.8984176204906	-582.2417617851199	3394.9490099681093	-541.8857800735988	-535.6851427311864	3404.9462462029883	-552.4318162838925	-643.9230775451139	3969.2659094494784	-466.73330092336863	-408.7341807496342	4096.776415849855	-418.4861918738039	-151.86330216427186	4096.627485402442	-366.08530841383794	-23.37931819768368	4109.662333760294	-370.12064999267443	5.590716023552197	4138.179068157686	-358.3502010834772	-15.830524304361779	4155.538700071896	-335.2179551295521
335	5.583333333333333	-113.93378949332062	3907.4299762227415	-632.3747220078274	243.78833478831368	4058.8772133007915	-647.4623564600051	599.3103330770695	4263.717310338577	-684.3947368825385	683.8551213605157	4170.894831277106	-642.8273112067722	674.5122690421387	4138.407523082746	-683.7089110065964	645.3235362698875	4319.244250346945	-698.5213410372842	-136.85208519998318	4050.3370667904123	-489.1909574801831	215.37469484884434	4194.38084338766	-496.90656526699706	553.7002519047567	4331.413415141306	-515.4046507371824	641.8380146398904	4237.504316296747	-415.3699763436216	609.706340650453	4278.806491155585	-378.96949860534585	607.2903526597407	4375.757943529843	-539.2275778907854	-715.1824328848592	3844.8323844715005	-591.8015883826614	-947.794808236583	3675.274892378344	-489.7677036799136	-804.2395393071099	3664.4907319661334	-455.7846921218103	-593.8602916749035	3754.6550325258468	-710.8003428881595	-346.6964309998704	3683.248217596026	-717.2968028453246	-493.6757196002892	3499.6682292084156	-626.8280710578283	-594.4190643661333	3465.3864339300294	-574.4475271894679	-578.2722333107383	3398.9505619899137	-543.7334573149543	-535.4661741021986	3405.6406878043194	-552.7877633073053	-639.6566847886518	3941.259492505739	-460.8955088256338	-408.80851399309273	4096.536600064825	-418.3726012518897	-153.39095171542397	4123.471868828937	-364.8307948545928	-23.850473239086043	4109.587936778017	-369.5018374506606	5.656108194718021	4138.607724962383	-358.1051177551164	-15.592520975724888	4155.411235948671	-334.89829070818627
